<?xml version="1.0" encoding="UTF-8"?>
<svg width="52px" height="32px" viewBox="0 0 52 32" version="1.1" xmlns="http://www.w3.org/2000/svg" xmlns:xlink="http://www.w3.org/1999/xlink">
    <title>编组 2备份</title>
    <defs>
        <rect id="path-1" x="0" y="0" width="52" height="32"></rect>
        <path d="M15.8408545,0 C18.2297818,0 20.4837455,1.05648174 21.9432909,2.86040696 L23.3751818,4.62985391 L30.6017636,13.6505426 C30.2006545,13.0203252 30.1907273,12.1890713 30.7336545,11.2956209 C31.4207636,10.1648922 33.0034545,9.34693217 34.3360727,8.96771652 L34.4036727,8.94879304 L34.5121636,8.91976348 C34.6771455,8.87694261 34.8371636,8.84115304 34.9900909,8.8126887 L35.1056727,8.79229565 L35.2283455,8.7724 L35.3257273,8.75765913 L35.4219273,8.74398087 L35.5174182,8.73141043 L35.6119636,8.71992522 L35.7055636,8.70959304 L35.7982182,8.7003687 L35.8896909,8.69232 L35.9802182,8.68542435 L36.0693273,8.67974957 L36.1355091,8.67626783 L36.2012182,8.67346435 L36.2874909,8.67081913 C36.3730545,8.66880696 36.4567273,8.6686487 36.5385091,8.67045739 L36.6193455,8.67292174 L36.6987636,8.67669739 L36.738,8.6790713 L36.777,8.68180696 L36.8533455,8.68825043 L36.9282727,8.69607304 L37.0017818,8.70529739 C37.6666727,8.79613913 38.1254545,9.06369043 38.2384364,9.56673391 C38.8551091,8.90604 39.2576364,7.53613391 38.6965091,6.70892696 C38.4038909,6.27753043 37.8515091,5.97294609 37.2773818,5.74116174 L37.2178182,5.71744522 L37.1128727,5.67681739 L37.0601636,5.65705739 L36.9552182,5.61864522 L36.8507455,5.58163478 L36.7987455,5.56363826 L36.6956909,5.52857217 L36.5938182,5.49472696 L36.4444364,5.44605043 L36.1158909,5.34107826 C35.7878182,4.9881113 35.217,4.70179478 34.4670182,4.46178087 L34.3327636,4.41988696 L34.1949636,4.37894261 L34.0536182,4.33890261 L33.9087273,4.29976696 L33.8349818,4.28050435 L33.8349818,4.28050435 L33.6848909,4.24265739 L33.5317273,4.20560174 L33.4539636,4.18737913 L33.2958364,4.15154435 L33.1346364,4.11643304 L32.9706,4.08209043 L32.8874,4.06517913 L32.6940545,4.02708348 C32.5855636,4.00617043 32.4754182,3.98566435 32.3636182,3.96554261 L32.1948545,3.9356313 L31.9889818,3.90045217 L31.8849818,3.88315652 L31.6743818,3.84908522 L31.3526909,3.79927826 L31.0794545,3.75887652 L30.8022,3.71940174 L30.5771818,3.68842783 L30.3498,3.6579513 L30.1198182,3.62797217 L29.8877091,3.5984 L29.5355273,3.55478783 L29.0590182,3.4977913 L28.8808,3.47719478 L29.6336182,2.54691478 L29.757,2.39622783 L29.8787273,2.24965565 L29.9590909,2.15422435 L30.0392182,2.06066957 L30.1517273,1.93193565 L30.2174364,1.85879652 L30.2831455,1.78694609 L30.3490909,1.71636174 L30.4155091,1.6470887 L30.4821636,1.57912696 L30.5495273,1.51247652 L30.6173636,1.44713739 L30.6516364,1.41496522 L30.7206545,1.35163826 L30.7903818,1.28964522 L30.8612909,1.2290087 L30.9331455,1.16970609 L31.0061818,1.11178261 L31.0804,1.05523826 C31.0929273,1.04592348 31.1054545,1.03665391 31.1179818,1.02747478 L31.1940909,0.972987826 L31.2718545,0.919902609 C31.9258727,0.483328696 32.7427455,0.192626087 33.9675818,0.0684365217 L34.1167273,0.0543286957 C34.1668364,0.0498973913 34.2178909,0.0457147826 34.2696545,0.041826087 L34.4266,0.0309513043 L34.5880364,0.0216817391 C34.6152182,0.02028 34.6426364,0.018946087 34.6702909,0.01768 L34.8378727,0.0108521739 L35.0101818,0.0056973913 L35.1867455,0.00217043478 C35.2465455,0.00128869565 35.3068182,0.000655652174 35.3680364,0.000316521739 L35.4822,0 L52,0 L39.2784364,15.3998678 L35.5155273,19.9589565 L35.4786545,20.0039026 C34.5944182,21.0401948 33.2499818,21.7043478 31.7400909,21.7043478 C30.0812909,21.7043478 28.6208,20.9049496 27.7526364,19.6886243 L27.7223818,19.6455322 L25.9127818,17.4573043 L14.2475273,2.78717739 C13.3982727,1.71912 12.0760545,1.09204522 10.6732364,1.09204522 L10.6637818,1.09204522 L24.7862727,18.9524174 L24.2776182,19.6455322 C23.4137091,20.8860261 21.9383273,21.7043478 20.2599091,21.7043478 C18.7750727,21.7043478 17.4504909,21.0621478 16.5657818,20.0554052 L16.5222909,20.0049878 L16.4835273,19.9589791 L12.7215636,15.3998678 L0,0 L15.8408545,0 Z M30.5178545,5.03482087 L30.8251273,5.05914783 C32.0026909,5.15577739 33.1814364,5.29568 34.3098364,5.61141043 C33.4910727,7.02264522 31.4491273,6.40983652 30.5178545,5.03482087 Z" id="path-3"></path>
    </defs>
    <g id="页面-1" stroke="none" stroke-width="1" fill="none" fill-rule="evenodd">
        <g id="集群分组-分组配置" transform="translate(-17.000000, -16.000000)">
            <g id="logo" transform="translate(17.000000, 16.000000)">
                <mask id="mask-2" fill="white">
                    <use xlink:href="#path-1"></use>
                </mask>
                <g id="蒙版"></g>
                <g id="编组" transform="translate(0.000000, 5.000000)">
                    <mask id="mask-4" fill="white">
                        <use xlink:href="#path-3"></use>
                    </mask>
                    <g id="Clip-447"></g>
                    <polygon id="Fill-446" fill="#0076FF" mask="url(#mask-4)" points="-1.18181818 22.8347826 53.1818182 22.8347826 53.1818182 -1.13043478 -1.18181818 -1.13043478"></polygon>
                </g>
            </g>
        </g>
    </g>
</svg>